<?xml version="1.0" encoding="UTF-8"?>
<svg version="1.1" xmlns="http://www.w3.org/2000/svg" width="300" height="170">
<path d="M0 0 C1.66289063 0.08507812 1.66289063 0.08507812 3.359375 0.171875 C6.07367128 0.31226964 8.78688754 0.46356598 11.5 0.625 C10.77633685 3.96930737 9.68284504 5.96762343 7.5 8.625 C8.16 8.955 8.82 9.285 9.5 9.625 C9.5 10.285 9.5 10.945 9.5 11.625 C10.16 11.625 10.82 11.625 11.5 11.625 C12.16 13.935 12.82 16.245 13.5 18.625 C14.056875 17.92375 14.61375 17.2225 15.1875 16.5 C17.59095275 13.51192361 20.03918251 10.565977 22.5 7.625 C23.17289063 6.79355469 23.17289063 6.79355469 23.859375 5.9453125 C28.02308586 0.82639738 28.02308586 0.82639738 32.25 0.25 C36.55121075 0.74629355 38.70355802 2.5024221 41.5 5.625 C43.34511652 8.07711563 45.08872924 10.57050871 46.7890625 13.125 C48.57438305 15.73368757 50.49939196 18.1788417 52.5 20.625 C52.57516846 19.72406616 52.57516846 19.72406616 52.65185547 18.80493164 C52.88316547 16.09818501 53.12888405 13.39293878 53.375 10.6875 C53.45363281 9.74197266 53.53226562 8.79644531 53.61328125 7.82226562 C53.73896484 6.47358398 53.73896484 6.47358398 53.8671875 5.09765625 C53.94050293 4.26500244 54.01381836 3.43234863 54.08935547 2.57446289 C54.22486816 1.93114014 54.36038086 1.28781738 54.5 0.625 C57.23905345 -0.74452673 59.47087332 -0.50121361 62.5 -0.375 C63.49 0.12 63.49 0.12 64.5 0.625 C64.5 3.265 64.5 5.905 64.5 8.625 C68.46 8.295 72.42 7.965 76.5 7.625 C76.5 5.315 76.5 3.005 76.5 0.625 C77.93640171 0.42926392 79.37419504 0.24372184 80.8125 0.0625 C81.61300781 -0.04191406 82.41351563 -0.14632812 83.23828125 -0.25390625 C85.5 -0.375 85.5 -0.375 88.5 0.625 C88.5 9.205 88.5 17.785 88.5 26.625 C85.2 26.625 81.9 26.625 78.5 26.625 C77.24335022 23.71899739 76.5 21.82895416 76.5 18.625 C72.54 18.295 68.58 17.965 64.5 17.625 C64.5 20.595 64.5 23.565 64.5 26.625 C56.86453069 26.67562418 49.2291045 26.71070152 41.59350586 26.73486328 C38.99485659 26.74493368 36.39621869 26.75859071 33.79760742 26.77587891 C30.06686603 26.80008139 26.33627419 26.81147266 22.60546875 26.8203125 C20.85691841 26.83579636 20.85691841 26.83579636 19.07304382 26.85159302 C17.99214981 26.85174408 16.9112558 26.85189514 15.79760742 26.85205078 C14.84496506 26.856492 13.89232269 26.86093323 12.91081238 26.86550903 C10.5 26.625 10.5 26.625 7.5 24.625 C7.5 25.285 7.5 25.945 7.5 26.625 C-3.06 26.625 -13.62 26.625 -24.5 26.625 C-23.43538108 22.36652431 -22.50957945 21.53749624 -19.5 18.625 C-19.5 17.965 -19.5 17.305 -19.5 16.625 C-20.16 16.295 -20.82 15.965 -21.5 15.625 C-21.5 14.965 -21.5 14.305 -21.5 13.625 C-22.16 13.625 -22.82 13.625 -23.5 13.625 C-24.92041821 10.78416359 -24.81452272 8.77022722 -24.5 5.625 C-22.0411804 1.9367706 -19.20155703 0.98156718 -14.97851562 -0.01367188 C-9.99694592 -0.73990544 -5.00627851 -0.29941857 0 0 Z M31.5 12.625 C31.37625 13.264375 31.2525 13.90375 31.125 14.5625 C30.91875 15.243125 30.7125 15.92375 30.5 16.625 C29.51 17.12 29.51 17.12 28.5 17.625 C30.81 17.625 33.12 17.625 35.5 17.625 C34.53114628 15.94003702 33.53013277 14.27321244 32.5 12.625 C32.17 12.625 31.84 12.625 31.5 12.625 Z " fill="#B90C0C" transform="translate(117.5,72.375)"/>
<path d="M0 0 C0.99 0.33 1.98 0.66 3 1 C3 1.66 3 2.32 3 3 C3.66 3.20625 4.32 3.4125 5 3.625 C13.06768457 7.32268876 18.86318523 13.13405656 23 21 C23.69140625 24.3125 23.69140625 24.3125 24 27 C19.64812064 28.19405307 15.47850351 28.84377602 11 28 C8.5625 25.4375 8.5625 25.4375 7.421875 23.78515625 C0.74102206 15.39738209 -10.97962436 11.13712867 -21.22265625 9.30859375 C-29.1580774 8.42688029 -37.14169296 8.63333791 -45 10 C-46.32 10 -47.64 10 -49 10 C-49 10.66 -49 11.32 -49 12 C-50.91282125 12.84212256 -52.83042473 13.67338864 -54.75 14.5 C-55.81734375 14.9640625 -56.8846875 15.428125 -57.984375 15.90625 C-61 17 -61 17 -65 17 C-68.7093376 19.62744746 -70.61394956 21.26926166 -72.75 25.3125 C-75 28 -75 28 -77.46875 28.37890625 C-80.00576426 28.37534303 -82.47717738 28.25998554 -85 28 C-85.6953125 26.30859375 -85.6953125 26.30859375 -86 24 C-82.82485429 17.9356689 -77.71129899 10.23709966 -71 8 C-71 7.34 -71 6.68 -71 6 C-51.28657155 -9.48912236 -22.12064363 -9.53333709 0 0 Z " fill="#E6E6E5" transform="translate(180,44)"/>
<path d="M0 0 C12.79381443 -0.78865979 12.79381443 -0.78865979 17.25 2.125 C18.1575 3.07375 19.065 4.0225 20 5 C26.88516484 10.00739261 33.68932986 12.37213678 42 14 C42 14.66 42 15.32 42 16 C45.3756301 15.88936784 48.75021989 15.75891985 52.125 15.625 C53.55199219 15.57859375 53.55199219 15.57859375 55.0078125 15.53125 C60.05432495 15.32097865 64.2511394 14.85587656 69 13 C71.11967291 12.4378483 73.24477097 11.89572265 75.375 11.375 C76.43460937 11.11460938 77.49421875 10.85421875 78.5859375 10.5859375 C79.38257813 10.39257812 80.17921875 10.19921875 81 10 C81 9.34 81 8.68 81 8 C82.64453125 6.81640625 82.64453125 6.81640625 84.8125 5.5625 C87.87613367 3.79865854 87.87613367 3.79865854 90.375 1.3515625 C92.86489342 -0.71935847 95.02173627 -0.28962141 98.1875 -0.1875 C99.27417969 -0.16042969 100.36085938 -0.13335937 101.48046875 -0.10546875 C102.72763672 -0.05326172 102.72763672 -0.05326172 104 0 C103.43000303 5.78139781 100.16469467 8.00388201 96.03125 11.71875 C93.75021054 14.28053278 93.63840015 15.72684667 93 19 C91.2578125 20.36328125 91.2578125 20.36328125 89.125 21.3125 C88.07699219 21.80169922 88.07699219 21.80169922 87.0078125 22.30078125 C85 23 85 23 82 23 C82 23.66 82 24.32 82 25 C79.54845157 25.73990395 77.09603407 26.47610444 74.640625 27.203125 C72.64432398 27.80555904 70.6619569 28.45442973 68.6875 29.125 C57.77340219 31.71478592 46.5833205 31.80999538 36 28 C32.87683698 27.19654777 29.74511866 26.43632824 26.609375 25.68359375 C24 25 24 25 22 24 C22 23.34 22 22.68 22 22 C21.34 21.95875 20.68 21.9175 20 21.875 C11.7058967 19.45588654 5.50009096 12.08119051 1 5 C0.27734375 2.19140625 0.27734375 2.19140625 0 0 Z " fill="#E5E5E5" transform="translate(96,100)"/>
<path d="M0 0 C1.66289063 0.08507812 1.66289063 0.08507812 3.359375 0.171875 C6.07367128 0.31226964 8.78688754 0.46356598 11.5 0.625 C10.77633685 3.96930737 9.68284504 5.96762343 7.5 8.625 C8.16 8.955 8.82 9.285 9.5 9.625 C9.5 10.285 9.5 10.945 9.5 11.625 C10.16 11.625 10.82 11.625 11.5 11.625 C11.5 15.255 11.5 18.885 11.5 22.625 C9.52 23.615 9.52 23.615 7.5 24.625 C7.5 25.285 7.5 25.945 7.5 26.625 C-3.06 26.625 -13.62 26.625 -24.5 26.625 C-23.43538108 22.36652431 -22.50957945 21.53749624 -19.5 18.625 C-19.5 17.965 -19.5 17.305 -19.5 16.625 C-20.16 16.295 -20.82 15.965 -21.5 15.625 C-21.5 14.965 -21.5 14.305 -21.5 13.625 C-22.16 13.625 -22.82 13.625 -23.5 13.625 C-24.92041821 10.78416359 -24.81452272 8.77022722 -24.5 5.625 C-22.0411804 1.9367706 -19.20155703 0.98156718 -14.97851562 -0.01367188 C-9.99694592 -0.73990544 -5.00627851 -0.29941857 0 0 Z " fill="#F1F1F1" transform="translate(117.5,72.375)"/>
<path d="M0 0 C0.99773437 -0.00128906 1.99546875 -0.00257812 3.0234375 -0.00390625 C4.05984375 -0.00003906 5.09625 0.00382812 6.1640625 0.0078125 C7.19273437 0.00394531 8.22140625 0.00007813 9.28125 -0.00390625 C14.22503561 0.00246461 18.93233357 0.08135572 23.7890625 1.1328125 C23.7890625 2.1228125 23.7890625 3.1128125 23.7890625 4.1328125 C24.3459375 3.94332031 24.9028125 3.75382812 25.4765625 3.55859375 C29.77538479 2.76708762 33.82990984 4.49636273 37.7890625 6.1328125 C40.2890625 8.3203125 40.2890625 8.3203125 41.7890625 10.1328125 C42.4490625 10.1328125 43.1090625 10.1328125 43.7890625 10.1328125 C45.14827836 11.43975083 46.47315615 12.78227704 47.7890625 14.1328125 C50.43018364 16.49565459 53.10764936 18.81586328 55.7890625 21.1328125 C56.7790625 20.6378125 56.7790625 20.6378125 57.7890625 20.1328125 C58.2840625 23.1028125 58.2840625 23.1028125 58.7890625 26.1328125 C54.43718314 27.32686557 50.26756601 27.97658852 45.7890625 27.1328125 C43.3515625 24.5703125 43.3515625 24.5703125 42.2109375 22.91796875 C35.53008456 14.53019459 23.80943814 10.26994117 13.56640625 8.44140625 C5.6309851 7.55969279 -2.35263046 7.76615041 -10.2109375 9.1328125 C-11.5309375 9.1328125 -12.8509375 9.1328125 -14.2109375 9.1328125 C-14.2109375 9.7928125 -14.2109375 10.4528125 -14.2109375 11.1328125 C-16.12375875 11.97493506 -18.04136223 12.80620114 -19.9609375 13.6328125 C-21.02828125 14.096875 -22.095625 14.5609375 -23.1953125 15.0390625 C-26.2109375 16.1328125 -26.2109375 16.1328125 -30.2109375 16.1328125 C-32.46158852 18.04948171 -32.46158852 18.04948171 -34.2109375 20.1328125 C-34.8709375 19.8028125 -35.5309375 19.4728125 -36.2109375 19.1328125 C-34.11430651 15.16024852 -31.91018155 12.69382761 -28.2109375 10.1328125 C-27.5509375 10.1328125 -26.8909375 10.1328125 -26.2109375 10.1328125 C-26.2109375 9.4728125 -26.2109375 8.8128125 -26.2109375 8.1328125 C-21.82459783 5.67218293 -18.19286798 4.68636033 -13.2109375 4.1328125 C-11.87176489 3.82377267 -10.53440496 3.50338339 -9.2109375 3.1328125 C-9.2109375 2.4728125 -9.2109375 1.8128125 -9.2109375 1.1328125 C-6.07638197 0.21228249 -3.26165558 0.00406763 0 0 Z " fill="#5F5C5C" transform="translate(145.2109375,44.8671875)"/>
<path d="M0 0 C0.66 0.33 1.32 0.66 2 1 C2 3.64 2 6.28 2 9 C7.94 8.505 7.94 8.505 14 8 C14 5.69 14 3.38 14 1 C15.43640171 0.80426392 16.87419504 0.61872184 18.3125 0.4375 C19.11300781 0.33308594 19.91351563 0.22867188 20.73828125 0.12109375 C23 0 23 0 26 1 C26 9.58 26 18.16 26 27 C22.7 27 19.4 27 16 27 C14.74335022 24.09399739 14 22.20395416 14 19 C10.04 18.67 6.08 18.34 2 18 C2 20.97 2 23.94 2 27 C-4.93359375 27.09765625 -4.93359375 27.09765625 -7 27 C-9.22712888 24.77287112 -8.47370613 19.81835327 -8.625 16.8125 C-8.6765625 15.96107422 -8.728125 15.10964844 -8.78125 14.23242188 C-9.01985752 9.69537005 -9.17492528 5.43782018 -8 1 C-5.26094655 -0.36952673 -3.02912668 -0.12621361 0 0 Z " fill="#F7F8F7" transform="translate(180,72)"/>
<path d="M0 0 C1.08667969 0.02707031 2.17335938 0.05414063 3.29296875 0.08203125 C4.54013672 0.13423828 4.54013672 0.13423828 5.8125 0.1875 C5.29920267 4.77653139 5.29920267 4.77653139 3.10546875 6.62890625 C2.41066406 6.99886719 1.71585937 7.36882812 1 7.75 C-1.50254062 9.16544407 -3.22948677 10.2307591 -5.25 12.3125 C-8.5971704 15.55169716 -12.54913441 17.1875 -17.1875 17.1875 C-17.1875 17.8475 -17.1875 18.5075 -17.1875 19.1875 C-19.4975 19.5175 -21.8075 19.8475 -24.1875 20.1875 C-24.1875 20.8475 -24.1875 21.5075 -24.1875 22.1875 C-37.47634171 25.1397505 -52.65138539 24.52357211 -65.1875 19.1875 C-66.54488281 18.68476562 -66.54488281 18.68476562 -67.9296875 18.171875 C-72.46473505 16.39176288 -72.46473505 16.39176288 -74.1875 15.1875 C-74.921875 13.0625 -74.921875 13.0625 -75.1875 11.1875 C-74.43984375 11.39246094 -73.6921875 11.59742187 -72.921875 11.80859375 C-71.93703125 12.07800781 -70.9521875 12.34742187 -69.9375 12.625 C-68.47570312 13.02525391 -68.47570312 13.02525391 -66.984375 13.43359375 C-64.72377347 14.04294584 -62.46127991 14.62988255 -60.1875 15.1875 C-60.1875 15.8475 -60.1875 16.5075 -60.1875 17.1875 C-49.9575 17.1875 -39.7275 17.1875 -29.1875 17.1875 C-29.1875 16.5275 -29.1875 15.8675 -29.1875 15.1875 C-25.2275 14.1975 -21.2675 13.2075 -17.1875 12.1875 C-17.1875 10.8675 -17.1875 9.5475 -17.1875 8.1875 C-15.54296875 6.80859375 -15.54296875 6.80859375 -13.375 5.625 C-10.3025964 3.94680964 -10.3025964 3.94680964 -7.8125 1.546875 C-5.32419843 -0.53468497 -3.17083514 -0.102285 0 0 Z " fill="#F0F0F0" transform="translate(194.1875,99.8125)"/>
<path d="M0 0 C0.99 0.495 0.99 0.495 2 1 C1.50628906 1.44730469 1.01257813 1.89460938 0.50390625 2.35546875 C-3.56290137 5.8866856 -3.56290137 5.8866856 -5.4375 10.6875 C-6 13 -6 13 -7.71484375 14.1953125 C-10.99671389 15.89262689 -13.258855 17 -17 17 C-17 17.66 -17 18.32 -17 19 C-19.45154843 19.73990395 -21.90396593 20.47610444 -24.359375 21.203125 C-26.35567602 21.80555904 -28.3380431 22.45442973 -30.3125 23.125 C-41.22659781 25.71478592 -52.4166795 25.80999538 -63 22 C-66.12316302 21.19654777 -69.25488134 20.43632824 -72.390625 19.68359375 C-75 19 -75 19 -77 18 C-77 17.34 -77 16.68 -77 16 C-71.87764436 15.62519349 -68.63056459 16.89519791 -64 19 C-59.65758199 20.22478457 -55.48065896 20.07594337 -51 20 C-52.98 19.67 -54.96 19.34 -57 19 C-57 18.01 -57 17.02 -57 16 C-55.68 16 -54.36 16 -53 16 C-53 16.66 -53 17.32 -53 18 C-52.34 17.67 -51.68 17.34 -51 17 C-49.11527141 16.84655791 -47.22572126 16.75040429 -45.3359375 16.68359375 C-44.21445313 16.64169922 -43.09296875 16.59980469 -41.9375 16.55664062 C-40.761875 16.51732422 -39.58625 16.47800781 -38.375 16.4375 C-36.59996094 16.37272461 -36.59996094 16.37272461 -34.7890625 16.30664062 C-31.85949672 16.20032574 -28.92984412 16.09829358 -26 16 C-25.67 15.34 -25.34 14.68 -25 14 C-22.67843403 13.59270772 -20.3431213 13.25561323 -18 13 C-18 12.34 -18 11.68 -18 11 C-17.19175781 10.69707031 -16.38351563 10.39414063 -15.55078125 10.08203125 C-7.33157879 6.87522969 -7.33157879 6.87522969 -1 1 C-0.67 0.67 -0.34 0.34 0 0 Z " fill="#B1B0B0" transform="translate(195,106)"/>
<path d="M0 0 C0.87454834 0.00523682 1.74909668 0.01047363 2.65014648 0.01586914 C3.59438477 0.0190918 4.53862305 0.02231445 5.51147461 0.02563477 C6.50469727 0.03401367 7.49791992 0.04239258 8.52124023 0.05102539 C9.51833008 0.05553711 10.51541992 0.06004883 11.54272461 0.06469727 C14.01478872 0.07652532 16.48673541 0.0930069 18.95874023 0.11352539 C18.95874023 0.77352539 18.95874023 1.43352539 18.95874023 2.11352539 C20.35092773 2.02071289 20.35092773 2.02071289 21.77124023 1.92602539 C27.04250984 1.89348669 31.95849898 3.59446476 36.95874023 5.11352539 C36.95874023 5.77352539 36.95874023 6.43352539 36.95874023 7.11352539 C37.98999023 7.34040039 39.02124023 7.56727539 40.08374023 7.80102539 C44.3414542 9.01257001 46.80268772 11.03261698 49.95874023 14.11352539 C50.45374023 15.59852539 50.45374023 15.59852539 50.95874023 17.11352539 C51.61874023 17.44352539 52.27874023 17.77352539 52.95874023 18.11352539 C52.95874023 18.77352539 52.95874023 19.43352539 52.95874023 20.11352539 C53.61874023 20.11352539 54.27874023 20.11352539 54.95874023 20.11352539 C54.95874023 20.77352539 54.95874023 21.43352539 54.95874023 22.11352539 C50.83670106 22.7146561 47.38048121 23.04342084 43.79077148 20.69555664 C41.79336706 18.88359789 39.87365094 17.01203429 37.95874023 15.11352539 C27.06837592 6.82737863 14.44898018 5.0889137 1.15795898 4.35961914 C-1.66030244 4.1428298 -4.28900036 3.73833475 -7.04125977 3.11352539 C-6.40188477 2.80415039 -5.76250977 2.49477539 -5.10375977 2.17602539 C-0.98617743 0.05484661 -0.98617743 0.05484661 0 0 Z " fill="#E4E4E4" transform="translate(144.041259765625,47.886474609375)"/>
<path d="M0 0 C12.79381443 -0.78865979 12.79381443 -0.78865979 17.25 2.125 C18.1575 3.07375 19.065 4.0225 20 5 C26.88516484 10.00739261 33.68932986 12.37213678 42 14 C42 14.66 42 15.32 42 16 C45.3756301 15.88936784 48.75021989 15.75891985 52.125 15.625 C53.55199219 15.57859375 53.55199219 15.57859375 55.0078125 15.53125 C60.05432495 15.32097865 64.2511394 14.85587656 69 13 C71.11967291 12.4378483 73.24477097 11.89572265 75.375 11.375 C76.43460937 11.11460938 77.49421875 10.85421875 78.5859375 10.5859375 C79.38257813 10.39257812 80.17921875 10.19921875 81 10 C81 10.66 81 11.32 81 12 C79.75336669 12.50833591 78.50250613 13.00631145 77.25 13.5 C76.55390625 13.7784375 75.8578125 14.056875 75.140625 14.34375 C73 15 73 15 69 15 C69 15.66 69 16.32 69 17 C65.55472389 17.77797803 62.36938862 18.12823674 58.83984375 18.1328125 C57.88142578 18.13410156 56.92300781 18.13539062 55.93554688 18.13671875 C54.94619141 18.13285156 53.95683594 18.12898438 52.9375 18.125 C51.94427734 18.12886719 50.95105469 18.13273437 49.92773438 18.13671875 C48.97060547 18.13542969 48.01347656 18.13414063 47.02734375 18.1328125 C46.15843506 18.13168457 45.28952637 18.13055664 44.39428711 18.12939453 C42.12715117 18.00687163 40.17382348 17.63404497 38 17 C38 16.34 38 15.68 38 15 C36.80375 14.87625 35.6075 14.7525 34.375 14.625 C30.72403187 14.17674946 27.45475101 13.29553163 24 12 C24.33 13.32 24.66 14.64 25 16 C19.97287136 14.71399035 17.4563151 12.82997078 14 9 C13.1028125 8.2265625 13.1028125 8.2265625 12.1875 7.4375 C11 6 11 6 11 2 C8.36 2.33 5.72 2.66 3 3 C3.7734375 4.175625 3.7734375 4.175625 4.5625 5.375 C5.036875 6.24125 5.51125 7.1075 6 8 C5.67 8.66 5.34 9.32 5 10 C2.03171571 6.64871128 0.70204908 4.39704421 0 0 Z " fill="#939292" transform="translate(96,100)"/>
<path d="M0 0 C0.268125 0.598125 0.53625 1.19625 0.8125 1.8125 C1.85407364 4.0308127 1.85407364 4.0308127 3.5625 5.375 C5.62278935 7.70402275 5.6639317 9.97538534 6 13 C5.01 13.495 5.01 13.495 4 14 C3.01 13.67 2.02 13.34 1 13 C1 12.34 1 11.68 1 11 C0.01 10.67 -0.98 10.34 -2 10 C-2 9.34 -2 8.68 -2 8 C-5.62793998 9.86566488 -5.62793998 9.86566488 -8 13 C-8.66 13 -9.32 13 -10 13 C-10.061875 13.5775 -10.12375 14.155 -10.1875 14.75 C-11.35107133 17.97219753 -13.16926179 19.15672861 -16 21 C-17.32 21 -18.64 21 -20 21 C-19.82242748 16.47190071 -19.59278217 14.56583752 -16.25 11.375 C-15.16757536 10.58209135 -14.08423777 9.79042753 -13 9 C-9.17550202 5.53426298 -9.17550202 5.53426298 -7 1 C-4.53721199 -0.231394 -2.7204945 -0.07159196 0 0 Z " fill="#EC0404" transform="translate(153,75)"/>
<path d="M0 0 C0.66 0.33 1.32 0.66 2 1 C2 3.64 2 6.28 2 9 C7.94 8.505 7.94 8.505 14 8 C14 5.69 14 3.38 14 1 C15.43640171 0.80426392 16.87419504 0.61872184 18.3125 0.4375 C19.11300781 0.33308594 19.91351563 0.22867188 20.73828125 0.12109375 C23 0 23 0 26 1 C26 9.58 26 18.16 26 27 C22.7 27 19.4 27 16 27 C14.74335022 24.09399739 14 22.20395416 14 19 C10.04 18.67 6.08 18.34 2 18 C2 20.97 2 23.94 2 27 C1.67 27 1.34 27 1 27 C1 23.37 1 19.74 1 16 C3.47923801 15.97314905 5.9581884 15.95323453 8.4375 15.9375 C9.14455078 15.92912109 9.85160156 15.92074219 10.58007812 15.91210938 C12.38693559 15.90346412 14.19387603 15.94779989 16 16 C17 17 17 17 17.09765625 18.84765625 C17.06510417 20.8984375 17.03255208 22.94921875 17 25 C19.31 25 21.62 25 24 25 C24 17.41 24 9.82 24 2 C21.36 2 18.72 2 16 2 C16 4.97 16 7.94 16 11 C13.68756208 11.02685412 11.3750373 11.04632841 9.0625 11.0625 C7.77472656 11.07410156 6.48695313 11.08570312 5.16015625 11.09765625 C2 11 2 11 1 10 C0.85884839 7.32941149 0.95752893 4.67567762 1 2 C-3.455 2.495 -3.455 2.495 -8 3 C-8 2.34 -8 1.68 -8 1 C-5.26094655 -0.36952673 -3.02912668 -0.12621361 0 0 Z " fill="#7B7979" transform="translate(180,72)"/>
<path d="M0 0 C3 0 3 0 4.625 1.125 C6.47382935 3.64613093 6.65927797 5.93350175 7 9 C2.545 9.495 2.545 9.495 -2 10 C-2.433125 11.2065625 -2.433125 11.2065625 -2.875 12.4375 C-4 15 -4 15 -6 16 C-8.37402501 16.07116382 -10.75000677 16.08409085 -13.125 16.0625 C-14.40632812 16.05347656 -15.68765625 16.04445313 -17.0078125 16.03515625 C-18.48894531 16.01775391 -18.48894531 16.01775391 -20 16 C-20.33 15.34 -20.66 14.68 -21 14 C-20.67 13.34 -20.34 12.68 -20 12 C-19.77532169 10.46331135 -19.59203195 8.92031946 -19.4375 7.375 C-19.35371094 6.55773437 -19.26992187 5.74046875 -19.18359375 4.8984375 C-19.12300781 4.27195312 -19.06242188 3.64546875 -19 3 C-18.67 3 -18.34 3 -18 3 C-17.67 4.65 -17.34 6.3 -17 8 C-16.01 7.34 -15.02 6.68 -14 6 C-14.33 8.31 -14.66 10.62 -15 13 C-11.55472339 11.75587233 -8.74608248 10.45185936 -6 8 C-5.67 7.01 -5.34 6.02 -5 5 C-4.34 5 -3.68 5 -3 5 C-2.690625 4.360625 -2.38125 3.72125 -2.0625 3.0625 C-1 1 -1 1 0 0 Z M1 2 C0.87625 2.639375 0.7525 3.27875 0.625 3.9375 C0.41875 4.618125 0.2125 5.29875 0 6 C-0.99 6.495 -0.99 6.495 -2 7 C0.31 7 2.62 7 5 7 C4.03114628 5.31503702 3.03013277 3.64821244 2 2 C1.67 2 1.34 2 1 2 Z " fill="#650B0A" transform="translate(148,83)"/>
<path d="M0 0 C0.66 0 1.32 0 2 0 C2 0.66 2 1.32 2 2 C3.2065625 2.3403125 3.2065625 2.3403125 4.4375 2.6875 C5.283125 3.120625 6.12875 3.55375 7 4 C7.8125 6.625 7.8125 6.625 8 9 C4.61363691 9.74515899 1.38056897 10.16770563 -2.08203125 10.31640625 C-3.47905273 10.37924805 -3.47905273 10.37924805 -4.90429688 10.44335938 C-5.86400391 10.48267578 -6.82371094 10.52199219 -7.8125 10.5625 C-8.79154297 10.60568359 -9.77058594 10.64886719 -10.77929688 10.69335938 C-13.18607027 10.7990226 -15.59293983 10.90112327 -18 11 C-15.25 6.125 -15.25 6.125 -13 5 C-11.54343706 4.87346461 -10.08458407 4.77235954 -8.625 4.6875 C-5.22185666 4.35974944 -4.25833177 4.21858842 -1.5625 1.9375 C-1.046875 1.298125 -0.53125 0.65875 0 0 Z " fill="#EF0303" transform="translate(160,88)"/>
<path d="M0 0 C0.66 0.33 1.32 0.66 2 1 C1.50628906 1.44730469 1.01257813 1.89460938 0.50390625 2.35546875 C-3.56290137 5.8866856 -3.56290137 5.8866856 -5.4375 10.6875 C-6 13 -6 13 -7.71484375 14.1953125 C-10.99671389 15.89262689 -13.258855 17 -17 17 C-17 17.66 -17 18.32 -17 19 C-18.32 19.33 -19.64 19.66 -21 20 C-21 18.68 -21 17.36 -21 16 C-22.32 16.33 -23.64 16.66 -25 17 C-25 16.01 -25 15.02 -25 14 C-21.535 13.505 -21.535 13.505 -18 13 C-18 12.34 -18 11.68 -18 11 C-17.19175781 10.69707031 -16.38351563 10.39414063 -15.55078125 10.08203125 C-7.33157879 6.87522969 -7.33157879 6.87522969 -1 1 C-0.67 0.67 -0.34 0.34 0 0 Z " fill="#A5A4A4" transform="translate(195,106)"/>
<path d="M0 0 C1.92050612 0.39859561 3.83635712 0.81965926 5.75 1.25 C6.81734375 1.48203125 7.8846875 1.7140625 8.984375 1.953125 C12.28668698 3.09952346 13.67281201 4.46315544 16 7 C16.66 7 17.32 7 18 7 C19.35921586 8.30693833 20.68409365 9.64946454 22 11 C24.64112114 13.36284209 27.31858686 15.68305078 30 18 C30.66 17.67 31.32 17.34 32 17 C32.495 19.97 32.495 19.97 33 23 C30.00519083 23.8723412 27.36424089 24.10829766 24.25 24.0625 C23.45078125 24.05347656 22.6515625 24.04445313 21.828125 24.03515625 C21.22484375 24.02355469 20.6215625 24.01195313 20 24 C20 23.34 20 22.68 20 22 C22.64 22 25.28 22 28 22 C28 21.34 28 20.68 28 20 C27.34 20 26.68 20 26 20 C26 19.34 26 18.68 26 18 C25.01 17.67 24.02 17.34 23 17 C22.649375 16.2575 22.29875 15.515 21.9375 14.75 C18.96531558 10.53141566 14.63467222 9.04342959 10 7 C10 6.34 10 5.68 10 5 C8.35 4.67 6.7 4.34 5 4 C5 3.34 5 2.68 5 2 C3.35 1.67 1.7 1.34 0 1 C0 0.67 0 0.34 0 0 Z " fill="#6D6A6A" transform="translate(171,48)"/>
<path d="M0 0 C0.72469482 0.15847412 1.44938965 0.31694824 2.19604492 0.48022461 C4.78951662 0.96098223 7.2319784 1.19757322 9.86328125 1.31640625 C11.19262695 1.37924805 11.19262695 1.37924805 12.54882812 1.44335938 C13.9168457 1.50233398 13.9168457 1.50233398 15.3125 1.5625 C16.70952148 1.62727539 16.70952148 1.62727539 18.13476562 1.69335938 C20.42304454 1.79897225 22.71142372 1.90107752 25 2 C25 3.32 25 4.64 25 6 C17.74 6 10.48 6 3 6 C2.34 7.32 1.68 8.64 1 10 C0.01 11.485 0.01 11.485 -1 13 C-1.66 13 -2.32 13 -3 13 C-2.45275433 9.1692803 -0.71844729 7.63075544 2 5 C2 4.34 2 3.68 2 3 C1.34 2.67 0.68 2.34 0 2 C0 1.34 0 0.68 0 0 Z " fill="#555151" transform="translate(96,86)"/>
<path d="M0 0 C1.66289063 0.08507812 1.66289063 0.08507812 3.359375 0.171875 C6.07367128 0.31226964 8.78688754 0.46356598 11.5 0.625 C10.80621489 3.88511642 10.04106009 5.41538253 7.5 7.625 C7.5 4.625 7.5 4.625 8.5 2.625 C4.06198004 2.73464677 -0.37517436 2.86533154 -4.8125 3 C-6.70645508 3.04640625 -6.70645508 3.04640625 -8.63867188 3.09375 C-10.45141602 3.15175781 -10.45141602 3.15175781 -12.30078125 3.2109375 C-13.41622314 3.2423584 -14.53166504 3.2737793 -15.6809082 3.30615234 C-18.70368786 3.430249 -18.70368786 3.430249 -21.5 5.625 C-21.86297936 7.60247122 -21.86297936 7.60247122 -21.6875 9.75 C-21.625625 11.02875 -21.56375 12.3075 -21.5 13.625 C-22.16 13.625 -22.82 13.625 -23.5 13.625 C-24.92041821 10.78416359 -24.81452272 8.77022722 -24.5 5.625 C-22.0411804 1.9367706 -19.20155703 0.98156718 -14.97851562 -0.01367188 C-9.99694592 -0.73990544 -5.00627851 -0.29941857 0 0 Z " fill="#919090" transform="translate(117.5,72.375)"/>
<path d="M0 0 C0.99 0.33 1.98 0.66 3 1 C3 1.66 3 2.32 3 3 C0.35307023 2.35841048 -2.29249929 1.71195217 -4.9375 1.0625 C-5.69224609 0.88009766 -6.44699219 0.69769531 -7.22460938 0.50976562 C-12.88671875 -0.88671875 -12.88671875 -0.88671875 -14 -2 C-20.753622 -3.38560681 -27.57201563 -3.11119138 -34.4375 -3.0625 C-36.25024414 -3.05573242 -36.25024414 -3.05573242 -38.09960938 -3.04882812 C-41.06645789 -3.03710145 -44.0332027 -3.02068896 -47 -3 C-47 -3.66 -47 -4.32 -47 -5 C-30.8200936 -7.70386136 -15.07063275 -6.49499285 0 0 Z " fill="#686666" transform="translate(180,44)"/>
<path d="M0 0 C0.87454834 0.00523682 1.74909668 0.01047363 2.65014648 0.01586914 C3.59438477 0.0190918 4.53862305 0.02231445 5.51147461 0.02563477 C6.50469727 0.03401367 7.49791992 0.04239258 8.52124023 0.05102539 C9.51833008 0.05553711 10.51541992 0.06004883 11.54272461 0.06469727 C14.01478872 0.07652532 16.48673541 0.0930069 18.95874023 0.11352539 C18.95874023 0.44352539 18.95874023 0.77352539 18.95874023 1.11352539 C16.97874023 1.44352539 14.99874023 1.77352539 12.95874023 2.11352539 C15.92874023 2.77352539 18.89874023 3.43352539 21.95874023 4.11352539 C21.95874023 5.10352539 21.95874023 6.09352539 21.95874023 7.11352539 C21.39928711 6.98075195 20.83983398 6.84797852 20.26342773 6.71118164 C13.90083225 5.30977395 7.65986596 4.71638671 1.15795898 4.35961914 C-1.66030244 4.1428298 -4.28900036 3.73833475 -7.04125977 3.11352539 C-6.40188477 2.80415039 -5.76250977 2.49477539 -5.10375977 2.17602539 C-0.98617743 0.05484661 -0.98617743 0.05484661 0 0 Z " fill="#D3D3D3" transform="translate(144.041259765625,47.886474609375)"/>
<path d="M0 0 C3.43742918 -0.05802698 6.87473253 -0.09360486 10.3125 -0.125 C11.28896484 -0.14175781 12.26542969 -0.15851563 13.27148438 -0.17578125 C14.20927734 -0.18222656 15.14707031 -0.18867187 16.11328125 -0.1953125 C16.97735596 -0.20578613 17.84143066 -0.21625977 18.73168945 -0.22705078 C21 0 21 0 24 2 C24 2.66 24 3.32 24 4 C24.66 4 25.32 4 26 4 C26 7.63 26 11.26 26 15 C24.02 15.99 24.02 15.99 22 17 C22 16.34 22 15.68 22 15 C22.66 14.67 23.32 14.34 24 14 C24.46523063 12.10466658 24.46523063 12.10466658 24.625 9.9375 C24.74875 8.638125 24.8725 7.33875 25 6 C19.62421315 4.24376685 14.69889745 3.60683126 9.0625 3.375 C8.28326172 3.33632812 7.50402344 3.29765625 6.70117188 3.2578125 C4.80112621 3.16455873 2.90059722 3.08124038 1 3 C0.67 2.01 0.34 1.02 0 0 Z " fill="#C2C1C1" transform="translate(103,80)"/>
<path d="M0 0 C4.63407702 3.08938468 6.81668323 5.78429883 9 11 C8.34 11 7.68 11 7 11 C7 10.34 7 9.68 7 9 C6.01 9 5.02 9 4 9 C4 8.34 4 7.68 4 7 C2.68 6.34 1.36 5.68 0 5 C0 4.01 0 3.02 0 2 C-2.31 2.33 -4.62 2.66 -7 3 C-7.061875 3.556875 -7.12375 4.11375 -7.1875 4.6875 C-8.3480769 7.99068042 -10.40213446 9.71894733 -13 12 C-13.66 12 -14.32 12 -15 12 C-15.66 13.32 -16.32 14.64 -17 16 C-17.66 15.67 -18.32 15.34 -19 15 C-17.24453378 11.9070357 -15.55296999 9.45477884 -13 7 C-12.13895462 5.96401207 -11.28537708 4.92179253 -10.4375 3.875 C-7.05359675 -0.1162705 -5.17835715 -0.59750275 0 0 Z " fill="#7F0E0E" transform="translate(153,73)"/>
<path d="M0 0 C7.72571645 2.41428639 13.22679496 7.81024387 18.06640625 14.0703125 C19 16 19 16 18.65234375 18.2421875 C18.43707031 18.82226562 18.22179687 19.40234375 18 20 C14.782865 17.49778389 11.87838189 14.87838189 9 12 C8.01 11.34 7.02 10.68 6 10 C6 9.34 6 8.68 6 8 C5.01 8.33 4.02 8.66 3 9 C2.67 8.01 2.34 7.02 2 6 C2.99 6 3.98 6 5 6 C5 5.34 5 4.68 5 4 C4.360625 3.896875 3.72125 3.79375 3.0625 3.6875 C2.381875 3.460625 1.70125 3.23375 1 3 C0.67 2.01 0.34 1.02 0 0 Z " fill="#B8B8B8" transform="translate(183,47)"/>
<path d="M0 0 C5.81420016 0.52856365 11.73962665 1.30650468 17 4 C17.33 4.99 17.66 5.98 18 7 C18.66 7.165 19.32 7.33 20 7.5 C20.66 7.665 21.32 7.83 22 8 C22.33 8.99 22.66 9.98 23 11 C22.16210938 10.71382812 21.32421875 10.42765625 20.4609375 10.1328125 C16.87013177 8.95749234 13.26033111 7.90386729 9.625 6.875 C8.37976563 6.52179687 7.13453125 6.16859375 5.8515625 5.8046875 C4.91054687 5.53914063 3.96953125 5.27359375 3 5 C3 4.34 3 3.68 3 3 C2.01 2.67 1.02 2.34 0 2 C0 1.34 0 0.68 0 0 Z " fill="#DBDBDB" transform="translate(166,43)"/>
<path d="M0 0 C0.66 0.33 1.32 0.66 2 1 C2 1.66 2 2.32 2 3 C3.65 2.67 5.3 2.34 7 2 C7 2.66 7 3.32 7 4 C5.08717875 4.84212256 3.16957527 5.67338864 1.25 6.5 C-0.35101563 7.19609375 -0.35101563 7.19609375 -1.984375 7.90625 C-5 9 -5 9 -9 9 C-11.25065102 10.91666921 -11.25065102 10.91666921 -13 13 C-13.66 12.67 -14.32 12.34 -15 12 C-12.26343766 6.81493452 -9.30323716 3.84156742 -3.75 1.8125 C-2.8425 1.544375 -1.935 1.27625 -1 1 C-0.67 0.67 -0.34 0.34 0 0 Z " fill="#433F3F" transform="translate(124,52)"/>
<path d="M0 0 C0.33 0 0.66 0 1 0 C1.33 1.65 1.66 3.3 2 5 C2.99 4.34 3.98 3.68 5 3 C4.67 5.31 4.34 7.62 4 10 C7.59391114 8.66511872 10.75490696 7.03977277 14 5 C12.81699621 8.3670108 11.86100995 10.80315307 9 13 C6.51953125 13.29296875 6.51953125 13.29296875 3.8125 13.1875 C2.91144531 13.16042969 2.01039063 13.13335937 1.08203125 13.10546875 C0.39496094 13.07066406 -0.29210937 13.03585938 -1 13 C-1.33 12.34 -1.66 11.68 -2 11 C-1.67 10.34 -1.34 9.68 -1 9 C-0.77532169 7.46331135 -0.59203195 5.92031946 -0.4375 4.375 C-0.35371094 3.55773437 -0.26992187 2.74046875 -0.18359375 1.8984375 C-0.12300781 1.27195312 -0.06242188 0.64546875 0 0 Z " fill="#AB0D0D" transform="translate(129,86)"/>
<path d="M0 0 C0.66 0.33 1.32 0.66 2 1 C2 2.32 2 3.64 2 5 C-1.38636309 5.74515899 -4.61943103 6.16770563 -8.08203125 6.31640625 C-9.01337891 6.35830078 -9.94472656 6.40019531 -10.90429688 6.44335938 C-11.86400391 6.48267578 -12.82371094 6.52199219 -13.8125 6.5625 C-14.79154297 6.60568359 -15.77058594 6.64886719 -16.77929688 6.69335938 C-19.18607027 6.7990226 -21.59293983 6.90112327 -24 7 C-21.25 2.125 -21.25 2.125 -19 1 C-16.3276379 0.86584528 -13.67749512 0.95681459 -11 1 C-11 1.33 -11 1.66 -11 2 C-12.65 2.33 -14.3 2.66 -16 3 C-10.39 3.33 -4.78 3.66 1 4 C0.67 2.68 0.34 1.36 0 0 Z " fill="#DA0807" transform="translate(166,92)"/>
<path d="M0 0 C2.27057377 -0.05398987 4.54151288 -0.09278742 6.8125 -0.125 C8.07707031 -0.14820312 9.34164062 -0.17140625 10.64453125 -0.1953125 C14 0 14 0 17 2 C16.67 2.66 16.34 3.32 16 4 C15.34 3.67 14.68 3.34 14 3 C15.52206009 5.62901288 16.84365964 7.84365964 19 10 C18.01 10.495 18.01 10.495 17 11 C12.3125 7.484375 12.3125 7.484375 11 6 C11 4.68 11 3.36 11 2 C8.36 2.33 5.72 2.66 3 3 C3.7734375 4.175625 3.7734375 4.175625 4.5625 5.375 C5.036875 6.24125 5.51125 7.1075 6 8 C5.67 8.66 5.34 9.32 5 10 C2.03171571 6.64871128 0.70204908 4.39704421 0 0 Z " fill="#6F6D6D" transform="translate(96,100)"/>
<path d="M0 0 C2.64 0 5.28 0 8 0 C8.33 2.97 8.66 5.94 9 9 C8.34 9 7.68 9 7 9 C7 6.36 7 3.72 7 1 C5.02 1 3.04 1 1 1 C0.67 8.26 0.34 15.52 0 23 C2.31 23 4.62 23 7 23 C7 20.36 7 17.72 7 15 C7.33 15 7.66 15 8 15 C8 18.3 8 21.6 8 25 C1.84765625 25.09765625 1.84765625 25.09765625 0 25 C-2.24379166 22.75620834 -1.5203047 17.77734952 -1.6875 14.75 C-1.74744141 13.89019531 -1.80738281 13.03039062 -1.86914062 12.14453125 C-2.12492906 7.59640267 -2.22865348 4.13282868 0 0 Z " fill="#BCBDBC" transform="translate(173,74)"/>
<path d="M0 0 C1.32 0 2.64 0 4 0 C4 0.66 4 1.32 4 2 C4.66 1.67 5.32 1.34 6 1 C7.88472859 0.84655791 9.77427874 0.75040429 11.6640625 0.68359375 C12.78554687 0.64169922 13.90703125 0.59980469 15.0625 0.55664062 C16.238125 0.51732422 17.41375 0.47800781 18.625 0.4375 C19.80835938 0.39431641 20.99171875 0.35113281 22.2109375 0.30664062 C25.14050328 0.20032574 28.07015588 0.09829358 31 0 C26.42831022 4.57168978 18.36333386 4.13848129 12.25 4.1875 C8.05436019 4.16166478 4.12476945 3.77185057 0 3 C0 2.01 0 1.02 0 0 Z " fill="#5E5C5C" transform="translate(138,122)"/>
<path d="M0 0 C0 0.66 0 1.32 0 2 C-1.24663331 2.50833591 -2.49749387 3.00631145 -3.75 3.5 C-4.44609375 3.7784375 -5.1421875 4.056875 -5.859375 4.34375 C-8 5 -8 5 -12 5 C-12 5.66 -12 6.32 -12 7 C-20.15002924 8.06162705 -27.83382806 7.84388104 -36 7 C-36 6.67 -36 6.34 -36 6 C-34.77023438 5.95101562 -33.54046875 5.90203125 -32.2734375 5.8515625 C-30.64060434 5.77648971 -29.00779288 5.70094385 -27.375 5.625 C-26.56675781 5.5940625 -25.75851563 5.563125 -24.92578125 5.53125 C-20.26228997 5.30376262 -16.39625312 4.70339152 -12 3 C-10.25273897 2.44956228 -8.50286794 1.90731266 -6.75 1.375 C-5.47382813 0.98441406 -5.47382813 0.98441406 -4.171875 0.5859375 C-2 0 -2 0 0 0 Z " fill="#7A7777" transform="translate(177,110)"/>
<path d="M0 0 C8.71624869 0.36900907 16.68549452 1.30202781 25 4 C21.86650268 5.04449911 21.01031744 4.93423645 18 4 C18.33 4.99 18.66 5.98 19 7 C14.67035982 5.98975062 10.94718023 5.03725431 7 3 C4.6756398 2.30269194 2.34326294 1.63087848 0 1 C0 0.67 0 0.34 0 0 Z " fill="#E9E9E9" transform="translate(156,49)"/>
<path d="M0 0 C0.33 0 0.66 0 1 0 C1.33 4.95 1.66 9.9 2 15 C-5.92 15 -13.84 15 -22 15 C-22 14.67 -22 14.34 -22 14 C-15.73 13.67 -9.46 13.34 -3 13 C-3.66 10.69 -4.32 8.38 -5 6 C-3.68 6.99 -2.36 7.98 -1 9 C-0.67 6.03 -0.34 3.06 0 0 Z " fill="#750E0D" transform="translate(171,84)"/>
<path d="M0 0 C2.4375 0.8125 2.4375 0.8125 5 2 C5.33 2.99 5.66 3.98 6 5 C9.00007271 6.70855022 9.00007271 6.70855022 12 8 C11.67 8.66 11.34 9.32 11 10 C11.39938767 12.09821215 11.39938767 12.09821215 12 14 C9.125 13.3125 9.125 13.3125 6 12 C4.875 9.75 4.875 9.75 4 7 C2.68457624 4.98817543 1.3540932 2.98600337 0 1 C0 0.67 0 0.34 0 0 Z " fill="#A6A5A5" transform="translate(109,102)"/>
<path d="M0 0 C0.33 0.66 0.66 1.32 1 2 C-6.625 4 -6.625 4 -10 4 C-10 3.34 -10 2.68 -10 2 C-12.31 2.66 -14.62 3.32 -17 4 C-17 3.34 -17 2.68 -17 2 C-10.23702552 -1.53519121 -7.40652975 -2.65517104 0 0 Z " fill="#989797" transform="translate(136,51)"/>
<path d="M0 0 C2.20826378 -0.02722517 4.41662638 -0.04649729 6.625 -0.0625 C7.85476562 -0.07410156 9.08453125 -0.08570313 10.3515625 -0.09765625 C13.67723791 -0.00863924 16.74047588 0.36313913 20 1 C20 1.99 20 2.98 20 4 C22.31 4.33 24.62 4.66 27 5 C26.67 5.66 26.34 6.32 26 7 C20.06 6.01 20.06 6.01 14 5 C14 4.34 14 3.68 14 3 C9.38 2.34 4.76 1.68 0 1 C0 0.67 0 0.34 0 0 Z " fill="#7A7878" transform="translate(149,45)"/>
<path d="M0 0 C13.86 0.495 13.86 0.495 28 1 C28 1.33 28 1.66 28 2 C18.1 2.66 8.2 3.32 -2 4 C-1.34 2.68 -0.68 1.36 0 0 Z " fill="#E5E5E5" transform="translate(97,95)"/>
<path d="M0 0 C4.62 1.32 9.24 2.64 14 4 C14.33 5.32 14.66 6.64 15 8 C12.6568787 7.74438677 10.32156597 7.40729228 8 7 C7.67 6.34 7.34 5.68 7 5 C4.6859378 4.26924352 2.35171131 3.59861742 0 3 C0 2.01 0 1.02 0 0 Z " fill="#666464" transform="translate(122,116)"/>
<path d="M0 0 C5.81118313 0.43045801 10.44364533 1.77499455 15.80078125 4.0625 C18.10682833 5.08067671 18.10682833 5.08067671 21 6 C21 6.66 21 7.32 21 8 C18.43471112 7.40615522 15.87324546 6.80038512 13.3125 6.1875 C12.59126953 6.02185547 11.87003906 5.85621094 11.12695312 5.68554688 C6.95862506 4.67677342 3.53808844 3.54714454 0 1 C0 0.67 0 0.34 0 0 Z " fill="#767474" transform="translate(162,39)"/>
<path d="M0 0 C0.66 0.33 1.32 0.66 2 1 C1.50628906 1.44730469 1.01257813 1.89460938 0.50390625 2.35546875 C-3.25654706 5.90406553 -5.11379223 7.8304547 -6 13 C-8.5625 14.3125 -8.5625 14.3125 -11 15 C-11.66 13.68 -12.32 12.36 -13 11 C-12.2575 10.79375 -11.515 10.5875 -10.75 10.375 C-7.19050558 8.59525279 -6.10383759 6.32542071 -4 3 C-1.75 1.125 -1.75 1.125 0 0 Z " fill="#666464" transform="translate(195,106)"/>
<path d="M0 0 C5.12235564 -0.37480651 8.36943541 0.89519791 13 3 C15.77888613 3.69140522 15.77888613 3.69140522 18 4 C17.67 4.99 17.34 5.98 17 7 C14.5409452 6.35681657 12.08276476 5.71057848 9.625 5.0625 C8.92632812 4.88009766 8.22765625 4.69769531 7.5078125 4.50976562 C2.2265625 3.11328125 2.2265625 3.11328125 0 2 C0 1.34 0 0.68 0 0 Z " fill="#919090" transform="translate(118,122)"/>
<path d="M0 0 C3.63 0.33 7.26 0.66 11 1 C11 1.66 11 2.32 11 3 C12.98 3 14.96 3 17 3 C17.33 3.66 17.66 4.32 18 5 C11.64012196 5.20190089 6.14778871 4.6277833 0 3 C0 2.01 0 1.02 0 0 Z " fill="#F3F3F3" transform="translate(127,122)"/>
<path d="M0 0 C1.12148437 0.30744141 1.12148437 0.30744141 2.265625 0.62109375 C3.25046875 0.89050781 4.2353125 1.15992187 5.25 1.4375 C6.71179688 1.83775391 6.71179688 1.83775391 8.203125 2.24609375 C10.46372653 2.85544584 12.72622009 3.44238255 15 4 C14.67 4.66 14.34 5.32 14 6 C12.02 5.34 10.04 4.68 8 4 C8 4.66 8 5.32 8 6 C8.99 6 9.98 6 11 6 C10.67 6.66 10.34 7.32 10 8 C8.51356155 7.43545368 7.03593984 6.84765111 5.5625 6.25 C4.32693359 5.76273437 4.32693359 5.76273437 3.06640625 5.265625 C1 4 1 4 0.21484375 1.859375 C0.14394531 1.24578125 0.07304688 0.6321875 0 0 Z " fill="#DDDDDD" transform="translate(119,111)"/>
<path d="M0 0 C-0.375 2.4375 -0.375 2.4375 -1 5 C-1.99 5.495 -1.99 5.495 -3 6 C-2.67 4.68 -2.34 3.36 -2 2 C-9.13601646 2.28282126 -9.13601646 2.28282126 -15 6 C-15.66 5.67 -16.32 5.34 -17 5 C-12.51340124 -1.4094268 -7.34182201 -0.52692502 0 0 Z " fill="#7C7B7B" transform="translate(200,100)"/>
<path d="M0 0 C1.98260599 0.42164019 3.96107245 0.86278778 5.9375 1.3125 C7.03964844 1.55613281 8.14179688 1.79976562 9.27734375 2.05078125 C10.62505859 2.52064453 10.62505859 2.52064453 12 3 C12.33 3.99 12.66 4.98 13 6 C13.825 6.33 14.65 6.66 15.5 7 C16.7375 7.495 16.7375 7.495 18 8 C18.33 8.99 18.66 9.98 19 11 C16.58104663 9.88355998 14.5059998 8.6553487 12.3125 7.125 C8.37631705 4.5999015 4.30487563 2.79848138 0 1 C0 0.67 0 0.34 0 0 Z " fill="#726F6F" transform="translate(167,54)"/>
<path d="M0 0 C3.3287315 1.40691484 5.13167372 3.00691581 7.3125 5.875 C7.84488281 6.55304687 8.37726563 7.23109375 8.92578125 7.9296875 C10 10 10 10 9.66796875 12.2578125 C9.44753906 12.83273438 9.22710937 13.40765625 9 14 C4.7284486 11.07735957 3.34328551 8.9598234 2 4 C1.36184656 2.65278717 0.70674629 1.31252882 0 0 Z " fill="#8C8B8B" transform="translate(192,53)"/>
<path d="M0 0 C7.625 0.875 7.625 0.875 11 2 C11 2.66 11 3.32 11 4 C12.32 4.33 13.64 4.66 15 5 C11.43041489 6.1898617 9.96200589 5.71536834 6.375 4.75 C4.90160156 4.37101562 4.90160156 4.37101562 3.3984375 3.984375 C2.60695312 3.65953125 1.81546875 3.3346875 1 3 C0.67 2.01 0.34 1.02 0 0 Z " fill="#F9FAF9" transform="translate(166,43)"/>
<path d="M0 0 C0.66 0.33 1.32 0.66 2 1 C0.625 4 0.625 4 -2 7 C-5.3854069 7.5412406 -8.59961015 7.35042185 -12 7 C-12.33 5.68 -12.66 4.36 -13 3 C-12.34 2.67 -11.68 2.34 -11 2 C-11 2.99 -11 3.98 -11 5 C-8.03 5 -5.06 5 -2 5 C-1.34 3.35 -0.68 1.7 0 0 Z " fill="#525050" transform="translate(107,65)"/>
<path d="M0 0 C0.66 0.33 1.32 0.66 2 1 C4.87910588 1.23274209 7.74146495 1.41972757 10.625 1.5625 C11.42679688 1.60568359 12.22859375 1.64886719 13.0546875 1.69335938 C15.0362511 1.79951457 17.01810271 1.90026855 19 2 C19 2.33 19 2.66 19 3 C8.605 3.495 8.605 3.495 -2 4 C-1.34 2.68 -0.68 1.36 0 0 Z " fill="#B50A09" transform="translate(144,95)"/>
<path d="M0 0 C3.27075883 -0.0580476 6.54138524 -0.09361165 9.8125 -0.125 C10.74126953 -0.14175781 11.67003906 -0.15851563 12.62695312 -0.17578125 C13.51962891 -0.18222656 14.41230469 -0.18867187 15.33203125 -0.1953125 C16.15421143 -0.20578613 16.9763916 -0.21625977 17.82348633 -0.22705078 C20 0 20 0 23 2 C23 2.66 23 3.32 23 4 C20.525 3.505 20.525 3.505 18 3 C18 2.34 18 1.68 18 1 C12.06 1 6.12 1 0 1 C0 0.67 0 0.34 0 0 Z " fill="#5D5C5C" transform="translate(104,80)"/>
<path d="M0 0 C0.33 0 0.66 0 1 0 C1.33 1.65 1.66 3.3 2 5 C2.99 4.34 3.98 3.68 5 3 C3.66666667 6.33333333 2.33333333 9.66666667 1 13 C0.01 12.67 -0.98 12.34 -2 12 C-1.34 8.04 -0.68 4.08 0 0 Z " fill="#562424" transform="translate(129,86)"/>
<path d="M0 0 C1.07765625 0.03609375 2.1553125 0.0721875 3.265625 0.109375 C4.49539062 0.17898437 4.49539062 0.17898437 5.75 0.25 C5.75 0.58 5.75 0.91 5.75 1.25 C2.12 1.25 -1.51 1.25 -5.25 1.25 C-5.91 2.57 -6.57 3.89 -7.25 5.25 C-8.24 6.735 -8.24 6.735 -9.25 8.25 C-9.91 8.25 -10.57 8.25 -11.25 8.25 C-10.29925589 1.59479121 -6.28696394 -0.27334626 0 0 Z " fill="#8D8B8B" transform="translate(104.25,90.75)"/>
<path d="M0 0 C0 0.66 0 1.32 0 2 C-0.99 2.66 -1.98 3.32 -3 4 C-3.36297936 5.97747122 -3.36297936 5.97747122 -3.1875 8.125 C-3.125625 9.40375 -3.06375 10.6825 -3 12 C-3.66 12 -4.32 12 -5 12 C-6.42041821 9.15916359 -6.31452272 7.14522722 -6 4 C-2.84210526 0 -2.84210526 0 0 0 Z " fill="#7B797A" transform="translate(99,74)"/>
<path d="M0 0 C3.63 0 7.26 0 11 0 C11.33 0.99 11.66 1.98 12 3 C8.04 2.67 4.08 2.34 0 2 C0 1.34 0 0.68 0 0 Z " fill="#929191" transform="translate(144,50)"/>
<path d="M0 0 C0.66 0 1.32 0 2 0 C2 0.66 2 1.32 2 2 C2.99 2.33 3.98 2.66 5 3 C2.00519083 3.8723412 -0.63575911 4.10829766 -3.75 4.0625 C-4.54921875 4.05347656 -5.3484375 4.04445313 -6.171875 4.03515625 C-6.77515625 4.02355469 -7.3784375 4.01195313 -8 4 C-8 3.34 -8 2.68 -8 2 C-5.36 2 -2.72 2 0 2 C0 1.34 0 0.68 0 0 Z " fill="#343030" transform="translate(199,68)"/>
<path d="M0 0 C0.99 0 1.98 0 3 0 C3 0.66 3 1.32 3 2 C-4.42857143 4.14285714 -4.42857143 4.14285714 -8 5 C-8 4.01 -8 3.02 -8 2 C-6.865625 1.855625 -5.73125 1.71125 -4.5625 1.5625 C-1.19222799 1.38828522 -1.19222799 1.38828522 0 0 Z " fill="#727070" transform="translate(178,118)"/>
<path d="M0 0 C0.99 0.33 1.98 0.66 3 1 C2.34 1 1.68 1 1 1 C0.938125 1.78375 0.87625 2.5675 0.8125 3.375 C0.544375 4.24125 0.27625 5.1075 0 6 C-2.5625 7.3125 -2.5625 7.3125 -5 8 C-5 7.01 -5 6.02 -5 5 C-4.34 5 -3.68 5 -3 5 C-2.5359375 4.0409375 -2.5359375 4.0409375 -2.0625 3.0625 C-1 1 -1 1 0 0 Z " fill="#9A0C0C" transform="translate(148,83)"/>
<path d="M0 0 C0.66 0.33 1.32 0.66 2 1 C2 1.66 2 2.32 2 3 C3.65 2.67 5.3 2.34 7 2 C7 2.66 7 3.32 7 4 C4.03 4.66 1.06 5.32 -2 6 C-1.34 4.02 -0.68 2.04 0 0 Z " fill="#646262" transform="translate(124,52)"/>
<path d="M0 0 C0.66 0.33 1.32 0.66 2 1 C1.50628906 1.48210938 1.01257813 1.96421875 0.50390625 2.4609375 C-0.13675781 3.09257813 -0.77742188 3.72421875 -1.4375 4.375 C-2.07558594 5.00148438 -2.71367188 5.62796875 -3.37109375 6.2734375 C-5.07882176 7.91723061 -5.07882176 7.91723061 -6 10 C-6.66 9.67 -7.32 9.34 -8 9 C-5.89851796 5.01824456 -3.63094642 2.64960955 0 0 Z " fill="#7C7A7A" transform="translate(117,55)"/>
<path d="M0 0 C2.97 0.33 5.94 0.66 9 1 C9 1.99 9 2.98 9 4 C4.545 3.01 4.545 3.01 0 2 C0 1.34 0 0.68 0 0 Z " fill="#7E7C7C" transform="translate(157,51)"/>
<path d="M0 0 C2.37948772 0.17625835 3.70225849 0.69719773 5.37890625 2.40234375 C6.62115486 3.90649092 7.81376056 5.45129851 9 7 C4.68381834 7 3.07210341 4.86729652 0 2 C0 1.34 0 0.68 0 0 Z " fill="#8C8B8B" transform="translate(102,110)"/>
<path d="M0 0 C2.8125 0.625 2.8125 0.625 6 2 C7.875 5.125 7.875 5.125 9 8 C8.34 8 7.68 8 7 8 C7 7.34 7 6.68 7 6 C6.01 6 5.02 6 4 6 C4 5.34 4 4.68 4 4 C2.68 3.34 1.36 2.68 0 2 C0 1.34 0 0.68 0 0 Z " fill="#900E0E" transform="translate(153,76)"/>
<path d="M0 0 C0.33 0.66 0.66 1.32 1 2 C-1 5 -1 5 -3.1640625 5.51171875 C-3.97617188 5.56972656 -4.78828125 5.62773438 -5.625 5.6875 C-6.85089844 5.78611328 -6.85089844 5.78611328 -8.1015625 5.88671875 C-8.72804687 5.92410156 -9.35453125 5.96148437 -10 6 C-9.67 5.34 -9.34 4.68 -9 4 C-8.236875 3.855625 -7.47375 3.71125 -6.6875 3.5625 C-3.73890802 2.94535284 -2.26703116 1.93117469 0 0 Z " fill="#C10909" transform="translate(142,91)"/>
<path d="M0 0 C0 3 0 3 -2.375 5.625 C-5 8 -5 8 -7 9 C-6.82374165 6.62051228 -6.30280227 5.29774151 -4.59765625 3.62109375 C-3.09350908 2.37884514 -1.54870149 1.18623944 0 0 Z " fill="#CD0A0B" transform="translate(140,84)"/>
<path d="M0 0 C2 0 2 0 3.875 1.75 C4.57625 2.4925 5.2775 3.235 6 4 C6.7425 4.7425 7.485 5.485 8.25 6.25 C8.8275 6.8275 9.405 7.405 10 8 C6.45595664 8 5.89732095 7.39010515 3.3125 5.125 C2.68988281 4.59132813 2.06726563 4.05765625 1.42578125 3.5078125 C0 2 0 2 0 0 Z " fill="#3C3737" transform="translate(187,55)"/>
<path d="M0 0 C0 4.24645065 -1.81750806 6.38524772 -4 10 C-4.66 10 -5.32 10 -6 10 C-4.6302836 6.00499382 -2.74277578 3.19990508 0 0 Z " fill="#7E7C7C" transform="translate(102,57)"/>
<path d="M0 0 C2.475 0.99 2.475 0.99 5 2 C5 2.99 5 3.98 5 5 C2.69 4.67 0.38 4.34 -2 4 C-1.33333333 2.66666667 -0.66666667 1.33333333 0 0 Z " fill="#959595" transform="translate(132,119)"/>
<path d="M0 0 C2.475 0.99 2.475 0.99 5 2 C5 3.65 5 5.3 5 7 C2.47411298 4.63707344 1.11179163 3.33537489 0 0 Z " fill="#C6C6C6" transform="translate(109,102)"/>
<path d="M0 0 C0 1.66666667 0 3.33333333 0 5 C-1.98 5.33 -3.96 5.66 -6 6 C-5.67 5.34 -5.34 4.68 -5 4 C-4.34 4 -3.68 4 -3 4 C-3 3.34 -3 2.68 -3 2 C-2.01 1.34 -1.02 0.68 0 0 Z " fill="#6D1314" transform="translate(144,93)"/>
<path d="M0 0 C4.875 2.625 4.875 2.625 6 6 C4.125 5.8125 4.125 5.8125 2 5 C0.75 2.4375 0.75 2.4375 0 0 Z " fill="#D6D6D6" transform="translate(190,54)"/>
<path d="M0 0 C3.93673644 1.31224548 6.22719294 2.91910327 9 6 C2.42696629 4.1011236 2.42696629 4.1011236 0 1 C0 0.67 0 0.34 0 0 Z " fill="#6F6D6D" transform="translate(183,47)"/>
</svg>
